<?xml version="1.0" standalone="no"?>
<!DOCTYPE svg PUBLIC "-//W3C//DTD SVG 20010904//EN"
 "http://www.w3.org/TR/2001/REC-SVG-20010904/DTD/svg10.dtd">
<svg version="1.0" xmlns="http://www.w3.org/2000/svg"
 width="512.000000pt" height="512.000000pt" viewBox="0 0 512.000000 512.000000"
 preserveAspectRatio="xMidYMid meet">
<metadata>
Created by potrace 1.16, written by Peter Selinger 2001-2019
</metadata>
<g transform="translate(0.000000,512.000000) scale(0.100000,-0.100000)"
fill="#000000" stroke="none">
<path d="M3173 5006 c-23 -7 -56 -23 -75 -34 -18 -12 -713 -702 -1544 -1534
-1471 -1472 -1512 -1515 -1534 -1573 -17 -48 -21 -77 -18 -145 6 -150 -29
-109 755 -891 635 -634 702 -698 747 -713 44 -14 154 -16 1067 -16 l1018 0 20
26 c26 33 27 75 2 105 l-19 24 -618 3 -618 2 1127 1128 c693 694 1127 1135
1128 1147 3 43 -3 61 -27 83 -55 49 -27 74 -749 -648 l-670 -670 -880 880
-880 880 880 881 c493 493 896 889 917 900 41 21 101 25 145 9 32 -12 1576
-1550 1599 -1592 19 -36 18 -121 -2 -161 -9 -18 -66 -83 -127 -145 -98 -99
-111 -116 -111 -147 0 -48 27 -75 78 -75 39 0 46 6 162 123 155 157 169 184
169 327 0 95 -3 110 -27 155 -20 37 -238 261 -820 842 -660 660 -801 796 -843
814 -62 28 -190 35 -252 15z m-1000 -2944 l877 -877 -95 -95 -95 -95 -683 682
c-375 374 -692 686 -705 693 -52 26 -112 -14 -112 -75 0 -26 81 -111 692 -722
l693 -693 -280 -281 c-154 -155 -298 -294 -319 -310 l-39 -29 -264 0 c-210 0
-270 3 -291 14 -42 23 -1370 1357 -1381 1389 -14 36 -14 108 0 144 5 15 191
209 412 430 l402 403 85 -85 c76 -76 89 -85 122 -85 28 0 42 6 57 26 39 50 29
76 -63 172 l-85 87 92 93 c50 50 94 92 97 92 3 0 400 -395 883 -878z"/>
</g>
</svg>
