<?xml version="1.0" standalone="no"?>
<!DOCTYPE svg PUBLIC "-//W3C//DTD SVG 20010904//EN"
 "http://www.w3.org/TR/2001/REC-SVG-20010904/DTD/svg10.dtd">
<svg version="1.0" xmlns="http://www.w3.org/2000/svg"
 width="512.000000pt" height="512.000000pt" viewBox="0 0 512.000000 512.000000"
 preserveAspectRatio="xMidYMid meet">

<g transform="translate(0.000000,512.000000) scale(0.100000,-0.100000)"
fill="#000000" stroke="none">
<path d="M2440 4454 c0 -3 -47 -264 -105 -579 -58 -315 -105 -579 -105 -587 0
-8 44 29 98 81 195 191 416 311 707 383 79 19 117 22 305 22 200 1 223 -1 328
-26 274 -66 517 -202 714 -400 64 -65 80 -77 76 -58 -2 14 -51 283 -109 597
l-104 573 -902 0 c-497 0 -903 -3 -903 -6z"/>
<path d="M486 4300 c-34 -11 -73 -45 -92 -82 -31 -61 -46 -58 320 -58 184 0
337 4 340 9 11 17 -39 96 -74 116 -32 18 -55 20 -250 22 -118 1 -228 -2 -244
-7z"/>
<path d="M236 3984 c-64 -20 -137 -92 -159 -159 -15 -42 -17 -104 -17 -482 l0
-433 879 0 c873 0 878 0 905 -21 19 -15 26 -30 26 -55 0 -50 -15 -72 -58 -84
-24 -6 -333 -10 -895 -10 l-857 0 2 -947 3 -948 29 -53 c16 -28 44 -64 63 -78
76 -58 -100 -54 2405 -54 2209 0 2305 1 2343 19 50 22 99 70 128 125 l22 41 3
948 2 947 -158 0 -159 0 18 -75 c61 -257 48 -551 -36 -802 -72 -215 -185 -395
-354 -564 -215 -214 -462 -346 -758 -406 -135 -27 -425 -24 -560 5 -613 133
-1067 617 -1154 1230 -26 185 0 486 56 642 9 25 63 302 121 615 57 314 106
580 109 593 l5 22 -952 -1 c-815 0 -960 -3 -1002 -15z m547 -365 c48 -13 102
-61 129 -112 29 -59 23 -160 -15 -213 -43 -63 -89 -88 -166 -92 -54 -3 -74 1
-111 20 -158 81 -157 303 1 382 57 28 101 32 162 15z"/>
<path d="M4505 3963 c3 -21 48 -265 99 -543 l92 -505 182 -3 182 -2 0 433 c0
498 0 498 -80 578 -68 68 -113 79 -318 79 l-164 0 7 -37z"/>
<path d="M3190 3609 c-554 -64 -1007 -489 -1117 -1047 -23 -118 -23 -367 1
-477 87 -405 340 -737 694 -914 91 -46 252 -98 362 -117 142 -24 391 -15 522
19 474 124 821 471 945 945 34 131 43 380 19 522 -72 413 -328 757 -701 940
-235 116 -473 158 -725 129z m315 -676 c156 -39 326 -176 398 -320 144 -291
50 -638 -218 -813 -193 -126 -451 -133 -651 -19 -85 49 -179 141 -228 223
-127 212 -121 468 16 671 150 226 416 326 683 258z"/>
</g>
</svg>
