<?xml version="1.0" standalone="no"?>
<!DOCTYPE svg PUBLIC "-//W3C//DTD SVG 20010904//EN"
 "http://www.w3.org/TR/2001/REC-SVG-20010904/DTD/svg10.dtd">
<svg version="1.0" xmlns="http://www.w3.org/2000/svg"
 width="512.000000pt" height="512.000000pt" viewBox="0 0 512.000000 512.000000"
 preserveAspectRatio="xMidYMid meet">
<metadata>
Created by potrace 1.16, written by Peter Selinger 2001-2019
</metadata>
<g transform="translate(0.000000,512.000000) scale(0.100000,-0.100000)"
fill="#000000" stroke="none">
<path d="M161 5089 c-64 -32 -104 -75 -139 -149 -16 -32 -17 -212 -17 -2380 0
-2168 1 -2348 17 -2380 35 -74 75 -117 139 -149 l62 -31 1632 0 c1211 0 1641
3 1666 12 95 32 170 119 190 218 l11 57 73 -23 c119 -38 195 -47 349 -41 153
5 249 25 359 74 308 136 520 395 594 728 10 46 16 118 15 210 0 170 -26 287
-97 434 -142 294 -416 501 -737 557 -166 29 -400 7 -540 -51 -16 -7 -18 46
-20 907 l-3 913 -23 50 c-18 40 -119 146 -515 541 -323 322 -506 497 -532 510
-39 18 -83 19 -1231 22 l-1190 2 -63 -31z m2321 -596 c3 -426 3 -428 27 -476
12 -26 38 -59 57 -73 68 -52 78 -53 527 -54 l417 0 0 -918 0 -919 -65 -52
c-144 -117 -279 -335 -327 -526 -19 -75 -22 -117 -22 -250 0 -140 3 -172 26
-256 29 -106 77 -214 138 -305 50 -76 155 -191 209 -228 41 -29 41 -29 41 -93
0 -84 -18 -119 -69 -133 -27 -7 -536 -9 -1606 -8 l-1567 3 -29 33 -29 32 0
2289 0 2289 25 31 c14 16 36 32 48 34 12 2 511 5 1109 6 l1087 1 3 -427z m546
-391 c-251 -2 -323 1 -330 10 -4 7 -8 157 -8 333 l0 320 330 -330 330 -330
-322 -3z m1322 -2111 c266 -90 458 -295 531 -566 32 -120 30 -290 -5 -408 -45
-151 -111 -262 -217 -363 -161 -153 -336 -225 -549 -225 -137 -1 -231 21 -355
81 -173 84 -289 198 -370 365 -57 117 -75 186 -82 315 -21 384 234 723 615
820 62 16 103 19 207 16 115 -3 141 -7 225 -35z"/>
<path d="M639 3701 c-50 -50 -36 -136 27 -166 29 -14 117 -15 758 -13 l724 3
26 24 c32 30 43 81 26 122 -26 62 16 59 -793 59 l-739 0 -29 -29z"/>
<path d="M654 3114 c-61 -30 -74 -116 -25 -165 l29 -29 944 0 c1034 0 972 -4
998 59 17 41 6 92 -26 122 l-26 24 -931 2 c-824 2 -936 1 -963 -13z"/>
<path d="M2956 3115 c-42 -22 -55 -44 -56 -93 0 -90 99 -135 168 -77 39 32 48
72 28 119 -11 26 -26 41 -50 51 -44 19 -54 19 -90 0z"/>
<path d="M639 2501 c-39 -39 -40 -96 -3 -140 l26 -31 1199 0 1200 0 24 24 c45
45 45 107 0 152 l-24 24 -1196 0 -1197 0 -29 -29z"/>
<path d="M688 1933 c-41 -6 -78 -56 -78 -105 0 -30 7 -46 29 -69 l29 -29 914
0 c1017 0 947 -5 969 69 16 54 -11 111 -61 128 -26 9 -255 12 -905 11 -478 -1
-882 -3 -897 -5z"/>
<path d="M683 1333 c-37 -7 -73 -59 -73 -105 0 -30 7 -46 29 -69 l29 -29 915
0 914 0 26 26 c34 34 42 73 23 118 -29 69 15 66 -963 65 -483 -1 -888 -4 -900
-6z"/>
<path d="M4345 1606 c-16 -8 -77 -62 -135 -120 l-104 -105 -117 114 c-116 113
-118 115 -164 115 -64 0 -105 -39 -105 -101 0 -40 5 -47 117 -161 l117 -118
-117 -118 c-116 -118 -117 -119 -117 -166 0 -52 27 -90 74 -102 50 -12 80 7
196 122 l115 114 116 -116 c108 -108 118 -115 156 -116 53 0 82 16 99 59 26
61 12 87 -109 211 l-111 112 113 114 c99 100 113 118 118 154 7 51 -14 88 -62
108 -41 17 -42 17 -80 0z"/>
</g>
</svg>
