<?xml version="1.0" standalone="no"?>
<!DOCTYPE svg PUBLIC "-//W3C//DTD SVG 20010904//EN"
 "http://www.w3.org/TR/2001/REC-SVG-20010904/DTD/svg10.dtd">
<svg version="1.0" xmlns="http://www.w3.org/2000/svg"
 width="512.000000pt" height="512.000000pt" viewBox="0 0 512.000000 512.000000"
 preserveAspectRatio="xMidYMid meet">

<g transform="translate(0.000000,512.000000) scale(0.100000,-0.100000)"
fill="#000000" stroke="none">
<path d="M4410 4040 l0 -80 135 0 135 0 0 -1400 0 -1400 -135 0 -135 0 0 -80
0 -80 355 0 355 0 0 80 0 80 -135 0 -135 0 0 1400 0 1400 135 0 135 0 0 80 0
80 -355 0 -355 0 0 -80z"/>
<path d="M1135 3827 c-104 -35 -183 -95 -232 -178 -43 -73 -879 -1966 -894
-2024 -15 -59 -6 -133 24 -199 83 -181 313 -240 483 -123 68 47 101 101 184
299 41 95 78 179 83 186 14 18 930 18 944 0 5 -7 36 -76 68 -153 81 -194 100
-231 152 -286 67 -72 139 -104 233 -104 41 0 94 6 117 13 84 25 180 122 205
205 17 56 16 164 -1 207 -60 152 -861 1946 -886 1985 -42 67 -105 122 -174
153 -46 20 -75 26 -161 28 -69 3 -119 -1 -145 -9z m254 -173 c40 -20 61 -40
86 -78 33 -52 868 -1928 880 -1979 18 -69 -39 -163 -111 -187 -43 -15 -109 -6
-151 20 -42 25 -67 71 -163 295 -45 105 -90 199 -101 210 -19 20 -33 20 -573
20 -524 0 -555 -1 -574 -18 -11 -11 -60 -111 -107 -223 -48 -112 -97 -218
-108 -236 -27 -40 -99 -78 -147 -78 -85 1 -167 91 -157 172 5 34 806 1862 866
1972 29 55 82 104 132 122 19 7 66 13 105 13 57 1 80 -4 123 -25z"/>
<path d="M1206 3187 c-25 -18 -356 -810 -356 -852 0 -24 7 -39 26 -54 26 -20
38 -21 379 -21 341 0 353 1 379 21 19 15 26 30 26 53 0 41 -332 835 -357 853
-22 17 -74 17 -97 0z m163 -540 c50 -119 91 -219 91 -222 0 -3 -92 -5 -205 -5
-113 0 -205 2 -205 5 0 5 168 408 192 459 l12 27 12 -23 c6 -13 53 -121 103
-241z"/>
<path d="M3403 3259 c-183 -11 -399 -60 -500 -112 -76 -40 -153 -164 -153
-249 0 -159 136 -298 291 -298 21 0 84 12 141 26 124 31 339 44 423 25 68 -15
128 -59 155 -112 12 -22 20 -42 18 -44 -2 -2 -32 4 -68 12 -91 20 -378 29
-482 13 -46 -6 -123 -25 -173 -41 -284 -91 -445 -311 -445 -609 0 -292 156
-506 437 -600 228 -76 533 -42 718 79 l59 39 41 -43 c23 -25 67 -56 100 -72
51 -23 73 -28 145 -28 76 0 92 3 152 33 76 37 120 82 157 162 l26 55 0 520 c0
399 -3 537 -14 595 -87 475 -424 688 -1028 649z m400 -180 c248 -52 394 -193
458 -440 21 -79 22 -111 26 -575 5 -550 5 -556 -58 -616 -93 -89 -258 -44
-280 77 -11 63 -48 100 -92 91 -16 -3 -58 -32 -93 -65 -120 -110 -261 -161
-450 -161 -335 0 -544 187 -544 488 0 183 91 337 243 412 106 52 195 71 363
77 169 6 268 -4 402 -43 102 -30 135 -26 158 19 13 24 15 47 11 103 -15 177
-108 295 -274 350 -48 16 -87 19 -228 18 -151 0 -182 -3 -283 -28 -130 -32
-167 -30 -211 15 -41 41 -48 85 -23 142 22 50 41 63 142 95 218 70 519 86 733
41z"/>
<path d="M3385 2207 c-165 -43 -261 -145 -273 -294 -9 -111 33 -201 122 -261
67 -45 141 -64 246 -63 261 1 441 135 472 352 12 91 6 163 -16 188 -9 10 -61
33 -114 51 -88 30 -110 33 -242 36 -96 2 -162 -1 -195 -9z m363 -168 c24 -6
46 -18 49 -25 2 -7 -1 -38 -7 -69 -25 -121 -141 -195 -308 -197 -129 -1 -198
39 -209 120 -11 83 29 141 119 174 45 16 73 18 183 14 72 -2 150 -10 173 -17z"/>
</g>
</svg>
