<?xml version="1.0" standalone="no"?>
<!DOCTYPE svg PUBLIC "-//W3C//DTD SVG 20010904//EN"
 "http://www.w3.org/TR/2001/REC-SVG-20010904/DTD/svg10.dtd">
<svg version="1.0" xmlns="http://www.w3.org/2000/svg"
 width="512.000000pt" height="512.000000pt" viewBox="0 0 512.000000 512.000000"
 preserveAspectRatio="xMidYMid meet">

<g transform="translate(0.000000,512.000000) scale(0.100000,-0.100000)"
fill="#000000" stroke="none">
<path d="M495 4586 c-37 -16 -70 -52 -84 -89 -7 -17 -11 -115 -11 -242 l0
-213 -70 -4 c-74 -4 -105 -19 -144 -72 l-21 -27 0 -1659 0 -1659 21 -27 c11
-15 33 -37 48 -48 l27 -21 2299 0 2299 0 27 21 c15 11 37 33 48 48 l21 27 0
1659 0 1659 -21 27 c-11 15 -33 37 -48 48 -27 21 -34 21 -1136 24 l-1109 2 -3
229 c-3 252 -4 255 -72 305 -27 21 -35 21 -1034 23 -824 2 -1012 0 -1037 -11z
m4145 -2306 l0 -1440 -2080 0 -2080 0 0 1440 0 1440 2080 0 2080 0 0 -1440z"/>
<path d="M2492 3342 c-68 -36 -620 -487 -641 -523 -52 -91 -5 -199 100 -231
65 -19 103 0 279 142 88 72 162 130 165 130 3 0 5 -253 5 -563 0 -528 1 -564
19 -597 55 -104 198 -116 269 -22 l27 35 3 574 c1 315 5 573 8 573 3 0 77 -58
165 -130 176 -142 213 -161 278 -142 105 32 152 139 100 231 -23 41 -548 468
-631 514 -58 31 -100 34 -146 9z"/>
<path d="M1695 1396 c-67 -29 -105 -106 -91 -181 9 -47 59 -102 104 -115 25
-8 305 -10 874 -8 827 3 837 3 864 24 52 39 69 71 69 133 0 48 -5 64 -29 95
-52 69 -6 66 -928 66 -670 -1 -839 -3 -863 -14z"/>
</g>
</svg>
