<?xml version="1.0" standalone="no"?>
<!DOCTYPE svg PUBLIC "-//W3C//DTD SVG 20010904//EN"
 "http://www.w3.org/TR/2001/REC-SVG-20010904/DTD/svg10.dtd">
<svg version="1.0" xmlns="http://www.w3.org/2000/svg"
 width="512.000000pt" height="512.000000pt" viewBox="0 0 512.000000 512.000000"
 preserveAspectRatio="xMidYMid meet">
<metadata>
Created by potrace 1.16, written by Peter Selinger 2001-2019
</metadata>
<g transform="translate(0.000000,512.000000) scale(0.100000,-0.100000)"
fill="#000000" stroke="none">
<path d="M1313 4541 c-104 -38 -189 -116 -241 -221 l-27 -55 -3 -1801 -2
-1801 23 -34 c28 -43 79 -69 134 -69 62 0 80 10 204 112 63 52 149 122 192
158 l78 63 157 -156 c86 -85 170 -160 185 -166 38 -15 117 -13 143 2 11 7 105
82 208 167 103 85 191 155 196 155 5 0 93 -70 196 -155 103 -85 197 -160 208
-167 26 -15 105 -17 143 -2 15 6 99 81 185 167 145 143 159 154 175 141 88
-74 308 -253 346 -282 41 -32 56 -37 100 -37 63 0 113 24 145 70 l22 33 -2
1801 -3 1801 -29 60 c-38 77 -124 163 -201 201 l-60 29 -1210 2 c-1160 2
-1212 2 -1262 -16z m2400 -323 c16 -11 30 -33 37 -57 7 -26 9 -528 8 -1561
l-3 -1523 -106 90 c-58 50 -120 98 -137 107 -40 21 -104 21 -145 0 -18 -9
-100 -84 -184 -166 -107 -106 -155 -148 -165 -142 -7 4 -91 73 -186 152 -176
146 -217 172 -272 172 -55 0 -96 -26 -272 -172 -95 -79 -179 -148 -187 -152
-9 -6 -55 33 -160 137 -80 80 -160 152 -178 161 -18 9 -57 16 -87 16 -60 0
-68 -5 -228 -137 -43 -34 -80 -63 -83 -63 -3 0 -4 694 -3 1543 3 1452 4 1544
21 1570 9 14 32 31 50 36 19 6 469 9 1142 8 1039 -2 1113 -3 1138 -19z"/>
<path d="M1752 3740 c-48 -30 -72 -75 -72 -140 0 -100 60 -160 160 -160 100 0
160 60 160 160 0 100 -60 160 -160 160 -37 0 -66 -6 -88 -20z"/>
<path d="M2392 3740 c-48 -30 -72 -75 -72 -140 0 -65 24 -110 72 -140 32 -19
52 -20 488 -20 436 0 456 1 488 20 48 30 72 75 72 140 0 65 -24 110 -72 140
-32 19 -52 20 -488 20 -436 0 -456 -1 -488 -20z"/>
<path d="M1752 3260 c-48 -30 -72 -75 -72 -140 0 -100 60 -160 160 -160 100 0
160 60 160 160 0 100 -60 160 -160 160 -37 0 -66 -6 -88 -20z"/>
<path d="M2392 3260 c-48 -30 -72 -75 -72 -140 0 -65 24 -110 72 -140 32 -19
52 -20 488 -20 436 0 456 1 488 20 48 30 72 75 72 140 0 65 -24 110 -72 140
-32 19 -52 20 -488 20 -436 0 -456 -1 -488 -20z"/>
<path d="M1752 2780 c-48 -30 -72 -75 -72 -140 0 -100 60 -160 160 -160 100 0
160 60 160 160 0 100 -60 160 -160 160 -37 0 -66 -6 -88 -20z"/>
<path d="M2392 2780 c-48 -30 -72 -75 -72 -140 0 -65 24 -110 72 -140 32 -19
52 -20 488 -20 436 0 456 1 488 20 48 30 72 75 72 140 0 65 -24 110 -72 140
-32 19 -52 20 -488 20 -436 0 -456 -1 -488 -20z"/>
</g>
</svg>
