<?xml version="1.0" standalone="no"?>
<!DOCTYPE svg PUBLIC "-//W3C//DTD SVG 20010904//EN"
 "http://www.w3.org/TR/2001/REC-SVG-20010904/DTD/svg10.dtd">
<svg version="1.0" xmlns="http://www.w3.org/2000/svg"
 width="512.000000pt" height="512.000000pt" viewBox="0 0 512.000000 512.000000"
 preserveAspectRatio="xMidYMid meet">
<metadata>
Created by potrace 1.16, written by Peter Selinger 2001-2019
</metadata>
<g transform="translate(0.000000,512.000000) scale(0.100000,-0.100000)"
fill="#000000" stroke="none">
<path d="M435 5101 c-206 -60 -366 -224 -419 -428 -14 -54 -16 -281 -16 -2113
0 -2278 -5 -2100 67 -2244 48 -96 153 -201 249 -249 144 -72 -34 -67 2244 -67
2278 0 2100 -5 2244 67 96 48 201 153 249 249 72 143 67 -22 67 2135 l0 1944
-363 363 -362 362 -1950 -1 c-1827 0 -1954 -2 -2010 -18z m365 -1171 l0 -790
1550 0 1550 0 0 790 0 790 153 0 152 0 258 -258 257 -257 -2 -1825 -3 -1825
-28 -47 c-18 -30 -44 -57 -73 -74 -42 -25 -58 -28 -170 -32 l-124 -5 0 992 0
991 -1760 0 -1760 0 0 -991 0 -992 -124 5 c-112 4 -128 7 -170 32 -29 17 -55
44 -73 74 l-28 47 0 2005 0 2005 27 47 c30 51 82 88 137 99 20 4 80 7 134 8
l97 1 0 -790z m2700 200 l0 -590 -1150 0 -1150 0 0 590 0 590 1150 0 1150 0 0
-590z m420 -2940 l0 -790 -1360 0 -1360 0 0 790 0 790 1360 0 1360 0 0 -790z"/>
<path d="M2740 4135 l0 -395 200 0 200 0 0 395 0 395 -200 0 -200 0 0 -395z"/>
</g>
</svg>
