<?xml version="1.0" standalone="no"?>
<!DOCTYPE svg PUBLIC "-//W3C//DTD SVG 20010904//EN"
 "http://www.w3.org/TR/2001/REC-SVG-20010904/DTD/svg10.dtd">
<svg version="1.0" xmlns="http://www.w3.org/2000/svg"
 width="512.000000pt" height="512.000000pt" viewBox="0 0 512.000000 512.000000"
 preserveAspectRatio="xMidYMid meet">

<g transform="translate(0.000000,512.000000) scale(0.100000,-0.100000)"
fill="#000000" stroke="none">
<path d="M2200 4512 c-179 -141 -713 -561 -1185 -934 -473 -372 -870 -687
-881 -700 -42 -45 -58 -90 -58 -158 0 -138 97 -234 234 -234 79 0 109 13 215
98 l80 64 3 -1127 2 -1128 26 -24 26 -24 1898 0 1898 0 26 24 26 24 2 1128 3
1127 80 -64 c108 -86 136 -99 215 -99 98 1 169 46 216 135 27 51 25 152 -3
206 -29 54 -41 65 -512 434 l-401 315 0 483 c0 467 -1 483 -20 502 -11 11 -30
22 -42 25 -13 3 -150 5 -305 3 -279 -3 -283 -3 -305 -26 -22 -22 -23 -31 -28
-227 l-5 -204 -405 319 c-357 281 -409 319 -440 319 -31 0 -76 -32 -360 -257z
m1007 -424 c351 -276 679 -533 728 -573 50 -39 270 -212 490 -385 220 -172
415 -327 433 -344 60 -56 32 -146 -47 -146 -30 0 -54 15 -146 87 -60 48 -405
319 -765 602 -360 283 -803 631 -983 773 -253 199 -334 258 -356 258 -23 0
-258 -180 -1122 -860 -1003 -789 -1096 -860 -1130 -860 -46 0 -79 36 -79 86 0
27 9 40 48 73 101 86 2274 1791 2282 1791 5 0 296 -226 647 -502z m753 -18 c0
-239 -3 -360 -10 -360 -6 0 -94 66 -195 146 l-185 145 0 215 0 214 195 0 195
0 0 -360z m-491 -600 l891 -701 0 -1135 0 -1134 -350 0 -349 0 -5 33 c-3 17
-7 100 -10 182 -9 285 -53 530 -120 668 -110 226 -354 378 -586 365 -71 -4
-80 1 -80 37 0 8 25 37 55 66 75 71 130 157 162 254 22 69 27 103 31 239 l4
160 45 90 c42 86 44 95 41 161 -5 97 -40 170 -120 247 -34 33 -70 78 -81 101
-47 106 -139 147 -331 147 -267 0 -543 -148 -641 -343 -34 -67 -35 -74 -35
-181 0 -62 7 -137 15 -171 9 -37 14 -114 15 -200 0 -88 6 -164 15 -204 21 -89
87 -210 150 -275 59 -62 67 -78 59 -109 -5 -21 -11 -22 -97 -22 -162 -1 -302
-62 -426 -186 -117 -116 -173 -240 -212 -469 -17 -102 -25 -185 -46 -507 l-5
-83 -349 0 -349 0 0 1134 0 1134 897 706 c494 389 903 704 909 702 6 -2 412
-320 903 -706z m-659 -391 c24 -9 37 -24 57 -66 17 -35 45 -71 80 -101 33 -28
64 -67 80 -100 26 -54 26 -54 9 -108 -9 -30 -22 -54 -28 -54 -5 0 -23 11 -40
25 -16 14 -36 25 -45 25 -8 0 -62 -16 -120 -36 -179 -61 -319 -58 -456 12 -38
19 -77 34 -87 34 -10 0 -37 -16 -60 -35 -23 -19 -46 -32 -51 -29 -18 11 -10
145 11 190 59 120 237 226 435 257 45 8 178 -2 215 -14z m-448 -578 c136 -49
305 -48 459 4 72 23 75 23 99 6 25 -18 25 -20 25 -167 0 -131 -3 -156 -23
-209 -43 -115 -144 -217 -247 -252 -58 -19 -151 -21 -212 -4 -62 17 -157 85
-199 143 -63 86 -86 163 -92 314 l-4 131 48 31 c53 34 59 34 146 3z m198 -786
c47 0 100 2 119 5 32 5 34 3 46 -38 l13 -42 -91 -63 c-50 -34 -95 -61 -100
-59 -4 1 -44 28 -87 60 l-80 57 6 40 c9 55 11 58 53 48 20 -4 74 -8 121 -8z
m-215 -245 c121 -88 188 -130 205 -130 17 0 90 44 210 126 101 69 189 128 195
130 7 3 44 -2 84 -10 192 -40 335 -182 390 -386 37 -140 71 -437 71 -632 l0
-68 -135 0 -135 0 0 259 c0 246 -1 260 -21 285 -29 37 -89 37 -118 0 -20 -25
-21 -39 -21 -285 l0 -259 -510 0 -510 0 0 259 c0 246 -1 260 -21 285 -16 20
-29 26 -59 26 -30 0 -43 -6 -59 -26 -20 -25 -21 -39 -21 -285 l0 -259 -135 0
-135 0 0 68 c0 185 36 500 71 632 41 150 134 272 258 339 53 28 152 58 201 60
9 1 97 -57 195 -129z"/>
</g>
</svg>
