<?xml version="1.0" standalone="no"?>
<!DOCTYPE svg PUBLIC "-//W3C//DTD SVG 20010904//EN"
 "http://www.w3.org/TR/2001/REC-SVG-20010904/DTD/svg10.dtd">
<svg version="1.0" xmlns="http://www.w3.org/2000/svg"
 width="512.000000pt" height="512.000000pt" viewBox="0 0 512.000000 512.000000"
 preserveAspectRatio="xMidYMid meet">

<g transform="translate(0.000000,512.000000) scale(0.100000,-0.100000)"
fill="#000000" stroke="none">
<path d="M1991 5025 c-160 -45 -297 -182 -340 -342 l-11 -41 -118 -4 c-94 -4
-126 -9 -163 -27 -73 -35 -125 -86 -160 -156 -78 -159 -11 -353 149 -432 l57
-28 720 0 720 0 48 24 c64 31 126 95 156 159 l24 52 225 0 c138 0 239 -4 262
-11 64 -19 131 -78 165 -144 l30 -59 5 -320 c3 -177 8 -326 12 -333 27 -41
122 -27 133 20 4 13 5 169 3 348 l-3 324 -37 77 c-61 129 -157 207 -295 243
-42 11 -115 15 -278 15 l-220 0 -19 48 c-27 64 -105 145 -169 173 -40 18 -78
24 -166 28 l-113 6 -18 57 c-44 142 -157 259 -298 311 -75 27 -225 33 -301 12z
m214 -150 c76 -20 156 -74 195 -133 33 -49 60 -128 60 -173 0 -15 11 -41 24
-56 l24 -28 159 -5 c132 -4 163 -8 185 -24 101 -68 95 -222 -10 -288 l-37 -23
-658 -3 c-438 -2 -671 1 -697 8 -110 30 -162 148 -107 244 42 75 58 80 237 86
190 6 194 8 211 111 18 115 76 203 168 252 84 46 155 55 246 32z"/>
<path d="M675 4376 c-129 -31 -241 -122 -298 -243 l-32 -68 -3 -1812 c-2
-1813 -2 -1813 19 -1875 38 -114 122 -207 237 -261 l67 -32 1455 0 1455 0 58
24 c118 47 220 158 257 279 18 59 20 94 20 411 l0 347 68 12 c366 63 667 337
772 702 28 95 38 307 20 416 -31 196 -126 379 -270 525 -124 125 -277 214
-450 260 -123 33 -357 33 -480 0 -338 -91 -593 -339 -697 -678 -25 -81 -27
-102 -27 -263 -1 -154 2 -185 22 -254 83 -286 268 -505 534 -631 95 -45 234
-85 298 -85 64 0 62 16 58 -356 -3 -332 -4 -340 -27 -391 -29 -65 -91 -124
-157 -149 -47 -18 -96 -19 -1459 -19 l-1410 0 -46 23 c-60 29 -116 86 -143
142 l-21 45 -3 1770 c-2 1617 -1 1775 14 1822 20 64 70 124 132 161 45 26 54
27 215 32 l169 5 24 28 c13 15 24 34 24 42 0 27 -23 63 -47 74 -32 15 -284 13
-348 -3z m3318 -1463 c273 -61 501 -265 592 -532 101 -298 23 -626 -202 -848
-343 -338 -909 -305 -1209 71 -68 86 -129 204 -156 305 -31 113 -31 307 0 416
124 435 540 685 975 588z m-170 -1780 c-7 -2 -19 -2 -25 0 -7 3 -2 5 12 5 14
0 19 -2 13 -5z"/>
<path d="M3762 2614 c-13 -9 -24 -30 -28 -54 -5 -30 -13 -41 -34 -50 -38 -16
-95 -74 -116 -118 -53 -112 -9 -253 99 -316 24 -15 70 -29 105 -34 81 -11 112
-38 112 -98 0 -35 -5 -47 -31 -68 -17 -15 -43 -26 -59 -26 -43 0 -86 42 -94
90 -12 78 -81 106 -133 54 -23 -23 -25 -31 -20 -74 3 -27 15 -66 26 -88 22
-43 80 -98 117 -112 15 -6 24 -18 24 -30 0 -62 59 -105 115 -84 19 8 45 55 45
82 0 10 11 24 24 30 40 18 96 73 117 114 40 79 35 177 -14 249 -31 46 -101 97
-142 104 -19 3 -51 8 -71 11 -52 8 -84 43 -84 94 0 56 34 90 90 90 52 0 85
-31 95 -88 13 -77 92 -106 138 -51 50 61 -13 210 -110 261 -35 19 -43 28 -43
51 0 60 -77 97 -128 61z"/>
<path d="M877 3600 l-27 -21 0 -335 c0 -317 1 -335 19 -353 11 -11 35 -23 53
-26 18 -3 167 -5 330 -3 l296 3 26 24 26 24 0 328 c0 307 -1 328 -19 350 l-19
24 -329 3 c-322 3 -330 2 -356 -18z m573 -360 l0 -220 -225 0 -225 0 0 220 0
220 225 0 225 0 0 -220z"/>
<path d="M1945 3475 c-14 -13 -25 -36 -25 -50 0 -14 11 -37 25 -50 l24 -25
681 0 681 0 24 25 c30 30 32 64 4 99 l-20 26 -685 0 -685 0 -24 -25z"/>
<path d="M1983 3133 c-35 -7 -66 -52 -59 -88 13 -66 4 -65 461 -65 402 0 413
1 439 21 46 36 32 108 -25 128 -31 11 -763 14 -816 4z"/>
<path d="M894 2516 c-17 -8 -34 -21 -38 -31 -3 -9 -6 -164 -6 -345 l0 -329 27
-21 c26 -20 34 -21 356 -18 l329 3 19 24 c18 22 19 43 19 350 -1 351 -1 350
-54 371 -43 16 -613 13 -652 -4z m556 -366 l0 -220 -225 0 -225 0 0 220 0 220
225 0 225 0 0 -220z"/>
<path d="M1951 2393 c-32 -27 -37 -73 -11 -106 l21 -27 275 0 c261 0 275 1
294 20 30 30 27 83 -6 109 -25 20 -39 21 -289 21 -236 0 -265 -2 -284 -17z"/>
<path d="M1945 2015 c-14 -13 -25 -36 -25 -50 0 -14 11 -37 25 -50 l24 -25
269 0 c268 0 269 0 290 23 29 31 29 77 -1 105 -23 21 -30 22 -291 22 l-267 0
-24 -25z"/>
<path d="M872 1407 c-22 -23 -22 -28 -22 -353 l0 -331 23 -21 c23 -22 28 -22
351 -22 l327 0 24 25 25 24 0 324 c0 313 -1 325 -21 351 l-20 26 -333 0 -333
0 -21 -23z m573 -352 l0 -220 -220 0 -220 0 -3 223 -2 222 222 -2 223 -3 0
-220z"/>
<path d="M1949 1291 c-32 -32 -35 -47 -18 -84 20 -44 42 -47 369 -47 l309 0
27 23 c20 17 27 33 27 57 0 24 -7 40 -27 57 l-27 23 -315 0 -316 0 -29 -29z"/>
<path d="M1950 930 c-44 -44 -31 -109 27 -131 16 -6 275 -8 690 -7 l665 3 24
28 c31 36 31 71 -1 102 l-24 25 -681 0 c-664 0 -680 0 -700 -20z"/>
</g>
</svg>
