<?xml version="1.0" standalone="no"?>
<!DOCTYPE svg PUBLIC "-//W3C//DTD SVG 20010904//EN"
 "http://www.w3.org/TR/2001/REC-SVG-20010904/DTD/svg10.dtd">
<svg version="1.0" xmlns="http://www.w3.org/2000/svg"
 width="512.000000pt" height="512.000000pt" viewBox="0 0 512.000000 512.000000"
 preserveAspectRatio="xMidYMid meet">

<g transform="translate(0.000000,512.000000) scale(0.100000,-0.100000)"
fill="#000000" stroke="none">
<path d="M415 4146 c-41 -18 -83 -69 -90 -109 -3 -18 -4 -694 -3 -1504 3
-1468 3 -1472 24 -1499 11 -15 33 -37 48 -48 l27 -21 2139 0 2139 0 27 21 c15
11 37 33 48 48 21 27 21 28 21 1526 0 1498 0 1499 -21 1526 -11 15 -33 37 -48
48 l-27 21 -2127 2 c-1753 2 -2132 0 -2157 -11z m4065 -1586 l0 -1280 -1920 0
-1920 0 0 1280 0 1280 1920 0 1920 0 0 -1280z"/>
<path d="M3455 3506 c-56 -25 -95 -85 -95 -144 0 -23 -10 -32 -64 -60 -76 -39
-162 -126 -200 -200 -95 -187 -65 -399 77 -550 87 -91 185 -137 324 -151 90
-9 118 -23 157 -75 29 -39 29 -133 0 -172 -39 -53 -71 -69 -134 -69 -94 0
-145 50 -160 155 -15 105 -66 155 -160 155 -123 0 -182 -97 -150 -248 28 -137
132 -274 253 -333 52 -26 55 -29 60 -72 5 -48 27 -84 71 -116 39 -29 133 -29
172 0 44 32 66 68 71 116 5 42 7 45 68 77 75 38 162 125 199 199 95 187 65
399 -77 550 -87 91 -185 137 -324 151 -90 9 -118 23 -157 75 -29 39 -29 133 0
172 39 53 71 69 134 69 94 0 145 -50 160 -155 15 -105 66 -155 160 -155 123 0
182 97 150 248 -28 137 -132 274 -253 333 -52 26 -55 29 -60 72 -9 77 -66 132
-144 139 -28 2 -61 -2 -78 -11z"/>
<path d="M1055 3346 c-67 -29 -105 -106 -91 -181 9 -47 59 -102 104 -115 25
-8 233 -10 634 -8 585 3 597 3 624 24 53 39 69 71 69 134 0 63 -16 95 -69 134
-27 21 -39 21 -634 23 -489 2 -613 0 -637 -11z"/>
<path d="M1055 2706 c-67 -29 -105 -106 -91 -181 9 -47 59 -102 104 -115 25
-8 281 -10 794 -8 746 3 757 3 784 24 53 39 69 71 69 134 0 63 -16 95 -69 134
-27 21 -37 21 -794 23 -622 2 -773 0 -797 -11z"/>
<path d="M1055 2066 c-67 -29 -105 -106 -91 -181 9 -47 59 -102 104 -115 24
-7 160 -10 394 -8 342 3 358 4 384 24 53 39 69 71 69 134 0 63 -16 95 -69 134
-26 20 -41 21 -394 23 -290 2 -373 0 -397 -11z"/>
</g>
</svg>
