<?xml version="1.0" standalone="no"?>
<!DOCTYPE svg PUBLIC "-//W3C//DTD SVG 20010904//EN"
 "http://www.w3.org/TR/2001/REC-SVG-20010904/DTD/svg10.dtd">
<svg version="1.0" xmlns="http://www.w3.org/2000/svg"
 width="512.000000pt" height="512.000000pt" viewBox="0 0 512.000000 512.000000"
 preserveAspectRatio="xMidYMid meet">
<metadata>
Created by potrace 1.16, written by Peter Selinger 2001-2019
</metadata>
<g transform="translate(0.000000,512.000000) scale(0.100000,-0.100000)"
fill="#000000" stroke="none">
<path d="M1850 5114 c-19 -2 -73 -9 -120 -14 -103 -13 -295 -60 -410 -102
-550 -198 -1001 -644 -1199 -1185 -86 -233 -121 -435 -121 -691 0 -311 57
-573 184 -844 98 -211 221 -385 400 -564 384 -385 873 -586 1420 -585 314 0
576 57 848 183 l89 41 637 -635 c668 -666 666 -665 787 -699 28 -8 93 -14 145
-14 168 1 294 57 425 189 126 127 185 266 185 431 -1 96 -12 149 -47 224 -23
48 -121 150 -660 691 l-633 635 51 114 c65 147 113 291 145 444 35 167 45 485
19 657 -65 446 -255 828 -566 1139 -305 305 -688 499 -1115 565 -100 15 -396
28 -464 20z m321 -335 c145 -14 235 -34 374 -80 602 -204 1037 -727 1125
-1356 14 -105 14 -347 0 -443 -28 -183 -81 -352 -157 -505 -50 -100 -152 -259
-205 -319 l-34 -39 -64 55 c-256 216 -583 363 -935 419 -107 17 -417 17 -530
0 -347 -51 -674 -196 -934 -413 l-75 -62 -38 45 c-58 66 -144 199 -199 308
-203 403 -227 894 -65 1319 125 327 347 603 641 797 250 165 472 242 800 279
68 7 199 5 296 -5z m44 -2594 c290 -42 575 -169 779 -347 l40 -35 -95 -62
c-588 -390 -1343 -378 -1913 28 l-49 35 44 40 c68 60 213 153 324 206 272 129
581 177 870 135z m1972 -887 c647 -649 624 -621 602 -717 -37 -164 -226 -292
-352 -237 -18 8 -284 266 -620 603 l-588 590 70 57 c73 60 239 229 267 271 9
14 19 25 23 25 3 0 272 -267 598 -592z"/>
<path d="M1863 4346 c-206 -40 -386 -144 -508 -295 -320 -397 -227 -973 204
-1249 218 -140 523 -164 773 -61 187 77 361 248 444 435 69 156 88 384 45 549
-76 294 -314 531 -606 606 -103 26 -258 33 -352 15z m257 -332 c224 -52 400
-275 400 -504 0 -62 -36 -182 -74 -248 -105 -178 -314 -282 -510 -252 -280 41
-483 315 -437 586 50 290 339 485 621 418z"/>
</g>
</svg>
