<?xml version="1.0" standalone="no"?>
<!DOCTYPE svg PUBLIC "-//W3C//DTD SVG 20010904//EN"
 "http://www.w3.org/TR/2001/REC-SVG-20010904/DTD/svg10.dtd">
<svg version="1.0" xmlns="http://www.w3.org/2000/svg"
 width="512.000000pt" height="512.000000pt" viewBox="0 0 512.000000 512.000000"
 preserveAspectRatio="xMidYMid meet">
<metadata>
Created by potrace 1.16, written by Peter Selinger 2001-2019
</metadata>
<g transform="translate(0.000000,512.000000) scale(0.100000,-0.100000)"
fill="#000000" stroke="none">
<path d="M2300 4930 c-723 -89 -1340 -468 -1733 -1065 -179 -272 -296 -575
-359 -925 -19 -108 -22 -160 -22 -380 0 -279 12 -382 73 -616 217 -824 875
-1476 1705 -1689 223 -57 332 -70 596 -70 263 0 369 13 594 69 668 169 1238
632 1541 1251 108 222 171 415 217 675 30 169 33 564 5 735 -86 513 -297 937
-647 1299 -363 375 -798 604 -1325 697 -136 24 -513 35 -645 19z m415 -371
c390 -33 753 -173 1067 -410 106 -80 287 -261 367 -367 299 -395 445 -876 411
-1352 -52 -734 -487 -1370 -1150 -1683 -695 -329 -1505 -230 -2110 256 -504
405 -790 1061 -740 1695 51 647 386 1208 930 1557 106 68 316 168 442 209 180
60 415 100 608 105 30 0 109 -4 175 -10z"/>
<path d="M1705 3503 c-44 -23 -65 -44 -86 -85 -21 -41 -25 -111 -9 -155 6 -15
163 -180 348 -365 l337 -338 -342 -342 c-250 -251 -343 -351 -348 -373 -4 -16
-9 -37 -11 -47 -3 -9 1 -38 7 -64 17 -66 71 -118 138 -133 27 -6 56 -9 63 -7
7 3 27 7 43 11 22 5 121 97 373 348 l342 342 343 -342 c251 -251 350 -343 372
-348 17 -4 36 -8 43 -11 7 -2 36 1 63 7 67 14 121 67 138 133 10 42 9 61 -6
121 -3 11 -159 174 -346 363 l-342 342 337 338 c185 185 342 350 348 365 13
37 13 123 -1 150 -17 32 -60 77 -91 93 -32 16 -115 18 -155 4 -15 -6 -180
-163 -365 -348 l-338 -337 -337 337 c-186 185 -351 342 -366 348 -41 15 -117
12 -152 -7z"/>
</g>
</svg>
